<svg width="88" height="62" viewBox="0 0 88 62" fill="none" xmlns="http://www.w3.org/2000/svg">
<path d="M64.1285 53.0624C73.3993 66.0415 88.042 56.4559 84.5243 43.7916C79.2411 24.7721 76.3664 14.1827 74.8712 8.59189C73.9915 5.3042 71.0119 3 67.6084 3H19.8569C16.4536 3 13.4876 5.317 12.6601 8.61811C9.54752 21.0354 6.77036 31.9309 3.47569 43.7916C-0.0422053 56.4559 14.6007 66.0415 23.8715 53.0624" stroke="#1C3D5C" stroke-width="4.5" stroke-linecap="round" stroke-linejoin="round"/>
<path d="M58.5658 3V10.4167C58.5658 14.5128 55.2453 17.8333 51.1491 17.8333H36.3158C32.2197 17.8333 28.8992 14.5128 28.8992 10.4167V3" stroke="#1C3D5C" stroke-width="4.5" stroke-linecap="round" stroke-linejoin="round"/>
<path d="M28.8993 47.5003C32.9954 47.5003 36.316 44.1799 36.316 40.0836C36.316 35.9874 32.9954 32.667 28.8993 32.667C24.8032 32.667 21.4827 35.9874 21.4827 40.0836C21.4827 44.1799 24.8032 47.5003 28.8993 47.5003Z" stroke="#1C3D5C" stroke-width="4.5" stroke-linecap="round" stroke-linejoin="round"/>
<path d="M58.5658 47.5003C62.662 47.5003 65.9825 44.1799 65.9825 40.0836C65.9825 35.9874 62.662 32.667 58.5658 32.667C54.4696 32.667 51.1492 35.9874 51.1492 40.0836C51.1492 44.1799 54.4696 47.5003 58.5658 47.5003Z" stroke="#1C3D5C" stroke-width="4.5" stroke-linecap="round" stroke-linejoin="round"/>
</svg>
